# Blender v2.92.0 OBJ File: 'player_01.blend'
# www.blender.org
mtllib player_01.mtl
o Cube
v 0.195529 0.787380 2.238587
v 0.195529 0.445982 -0.012863
v 0.195529 -0.036850 2.238587
v 0.195529 -0.036850 -0.012863
v -0.430529 0.787380 2.238587
v -0.430529 0.445982 -0.012863
v -0.430529 -0.036850 2.238587
v -0.430529 -0.036850 -0.012863
v -0.300847 -0.300847 2.542496
v -0.300847 -0.300847 3.038609
v -0.300847 0.300847 2.542496
v -0.300847 0.300847 3.038609
v 0.300847 -0.300847 2.542496
v 0.300847 -0.300847 3.144190
v 0.300847 0.300847 2.542496
v 0.300847 0.300847 3.144190
v -0.287395 0.825743 1.580228
v -0.287395 0.825743 1.943412
v -0.287395 2.608371 1.580228
v -0.287395 2.608371 1.943412
v 0.075789 0.825743 1.580228
v 0.075789 0.825743 1.943412
v 0.075789 2.608371 1.580228
v 0.075789 2.608371 1.943412
v 0.195529 -0.787380 2.238587
v 0.195529 -0.445982 -0.012863
v 0.195529 0.036850 2.238587
v 0.195529 0.036850 -0.012863
v -0.430529 -0.787380 2.238587
v -0.430529 -0.445982 -0.012863
v -0.430529 0.036850 2.238587
v -0.430529 0.036850 -0.012863
v -0.300847 0.300847 2.542496
v -0.300847 0.300847 3.038609
v -0.300847 -0.300847 2.542496
v -0.300847 -0.300847 3.038609
v 0.300847 0.300847 2.542496
v 0.300847 0.300847 3.144190
v 0.300847 -0.300847 2.542496
v 0.300847 -0.300847 3.144190
v -0.287395 -0.825743 1.580228
v -0.287395 -0.825743 1.943412
v -0.287395 -2.608371 1.580228
v -0.287395 -2.608371 1.943412
v 0.075789 -0.825743 1.580228
v 0.075789 -0.825743 1.943412
v 0.075789 -2.608371 1.580228
v 0.075789 -2.608371 1.943412
vt 0.875000 0.500000
vt 0.625000 0.750000
vt 0.625000 0.500000
vt 0.375000 1.000000
vt 0.375000 0.750000
vt 0.625000 0.000000
vt 0.375000 0.250000
vt 0.375000 0.000000
vt 0.375000 0.500000
vt 0.125000 0.750000
vt 0.125000 0.500000
vt 0.625000 0.250000
vt 0.625000 0.000000
vt 0.375000 0.250000
vt 0.375000 0.000000
vt 0.625000 0.250000
vt 0.375000 0.500000
vt 0.625000 0.500000
vt 0.375000 0.750000
vt 0.625000 1.000000
vt 0.375000 1.000000
vt 0.125000 0.750000
vt 0.125000 0.500000
vt 0.875000 0.500000
vt 0.625000 0.750000
vt 0.625000 0.000000
vt 0.375000 0.250000
vt 0.375000 0.000000
vt 0.625000 0.250000
vt 0.375000 0.500000
vt 0.625000 0.500000
vt 0.375000 0.750000
vt 0.625000 0.750000
vt 0.375000 1.000000
vt 0.125000 0.750000
vt 0.125000 0.500000
vt 0.875000 0.500000
vt 0.875000 0.750000
vt 0.625000 1.000000
vt 0.875000 0.750000
vt 0.625000 1.000000
vt 0.875000 0.750000
vt 0.875000 0.500000
vt 0.625000 0.500000
vt 0.625000 0.750000
vt 0.375000 0.750000
vt 0.375000 1.000000
vt 0.625000 0.000000
vt 0.375000 0.000000
vt 0.375000 0.250000
vt 0.375000 0.500000
vt 0.125000 0.500000
vt 0.125000 0.750000
vt 0.625000 0.250000
vt 0.625000 0.000000
vt 0.375000 0.000000
vt 0.375000 0.250000
vt 0.625000 0.250000
vt 0.375000 0.500000
vt 0.625000 0.500000
vt 0.375000 0.750000
vt 0.375000 1.000000
vt 0.625000 1.000000
vt 0.125000 0.500000
vt 0.125000 0.750000
vt 0.875000 0.500000
vt 0.625000 0.750000
vt 0.625000 0.000000
vt 0.375000 0.000000
vt 0.375000 0.250000
vt 0.625000 0.250000
vt 0.375000 0.500000
vt 0.625000 0.500000
vt 0.375000 0.750000
vt 0.625000 0.750000
vt 0.375000 1.000000
vt 0.125000 0.500000
vt 0.125000 0.750000
vt 0.875000 0.500000
vt 0.875000 0.750000
vt 0.625000 1.000000
vt 0.875000 0.750000
vt 0.625000 1.000000
vt 0.875000 0.750000
vn 0.0000 0.0000 1.0000
vn 0.0000 -1.0000 0.0000
vn -1.0000 0.0000 0.0000
vn 0.0000 0.0000 -1.0000
vn 1.0000 0.0000 0.0000
vn 0.0000 0.9887 -0.1499
vn 0.0000 1.0000 0.0000
vn -0.1728 0.0000 0.9850
vn 0.0000 -0.9887 -0.1499
usemtl Material
s off
f 5/1/1 3/2/1 1/3/1
f 3/2/2 8/4/2 4/5/2
f 7/6/3 6/7/3 8/8/3
f 2/9/4 8/10/4 6/11/4
f 2/9/5 3/2/5 4/5/5
f 5/12/6 2/9/6 6/7/6
f 10/13/3 11/14/3 9/15/3
f 12/16/7 15/17/7 11/14/7
f 16/18/5 13/19/5 15/17/5
f 13/19/2 10/20/2 9/21/2
f 15/17/4 9/22/4 11/23/4
f 12/24/8 14/25/8 16/18/8
f 18/26/3 19/27/3 17/28/3
f 20/29/7 23/30/7 19/27/7
f 24/31/5 21/32/5 23/30/5
f 22/33/2 17/34/2 21/32/2
f 23/30/4 17/35/4 19/36/4
f 20/37/1 22/33/1 24/31/1
f 5/1/1 7/38/1 3/2/1
f 3/2/2 7/39/2 8/4/2
f 7/6/3 5/12/3 6/7/3
f 2/9/4 4/5/4 8/10/4
f 2/9/5 1/3/5 3/2/5
f 5/12/6 1/3/6 2/9/6
f 10/13/3 12/16/3 11/14/3
f 12/16/7 16/18/7 15/17/7
f 16/18/5 14/25/5 13/19/5
f 13/19/2 14/25/2 10/20/2
f 15/17/4 13/19/4 9/22/4
f 12/24/8 10/40/8 14/25/8
f 18/26/3 20/29/3 19/27/3
f 20/29/7 24/31/7 23/30/7
f 24/31/5 22/33/5 21/32/5
f 22/33/2 18/41/2 17/34/2
f 23/30/4 21/32/4 17/35/4
f 20/37/1 18/42/1 22/33/1
f 29/43/1 25/44/1 27/45/1
f 27/45/7 28/46/7 32/47/7
f 31/48/3 32/49/3 30/50/3
f 26/51/4 30/52/4 32/53/4
f 26/51/5 28/46/5 27/45/5
f 29/54/9 30/50/9 26/51/9
f 34/55/3 33/56/3 35/57/3
f 36/58/2 35/57/2 39/59/2
f 40/60/5 39/59/5 37/61/5
f 37/61/7 33/62/7 34/63/7
f 39/59/4 35/64/4 33/65/4
f 36/66/8 40/60/8 38/67/8
f 42/68/3 41/69/3 43/70/3
f 44/71/2 43/70/2 47/72/2
f 48/73/5 47/72/5 45/74/5
f 46/75/7 45/74/7 41/76/7
f 47/72/4 43/77/4 41/78/4
f 44/79/1 48/73/1 46/75/1
f 29/43/1 27/45/1 31/80/1
f 27/45/7 32/47/7 31/81/7
f 31/48/3 30/50/3 29/54/3
f 26/51/4 32/53/4 28/46/4
f 26/51/5 27/45/5 25/44/5
f 29/54/9 26/51/9 25/44/9
f 34/55/3 35/57/3 36/58/3
f 36/58/2 39/59/2 40/60/2
f 40/60/5 37/61/5 38/67/5
f 37/61/7 34/63/7 38/67/7
f 39/59/4 33/65/4 37/61/4
f 36/66/8 38/67/8 34/82/8
f 42/68/3 43/70/3 44/71/3
f 44/71/2 47/72/2 48/73/2
f 48/73/5 45/74/5 46/75/5
f 46/75/7 41/76/7 42/83/7
f 47/72/4 41/78/4 45/74/4
f 44/79/1 46/75/1 42/84/1
